<?xml version="1.0" standalone="no"?>
<!DOCTYPE svg PUBLIC "-//W3C//DTD SVG 20010904//EN"
 "http://www.w3.org/TR/2001/REC-SVG-20010904/DTD/svg10.dtd">
<svg version="1.0" xmlns="http://www.w3.org/2000/svg"
 width="487.000000pt" height="487.000000pt" viewBox="0 0 487.000000 487.000000"
 preserveAspectRatio="xMidYMid meet">

<g transform="translate(0.000000,487.000000) scale(0.100000,-0.100000)"
fill="#000000" stroke="none">
<path d="M4125 3918 c-44 -50 -108 -125 -143 -167 -35 -42 -89 -105 -121 -141
-60 -66 -95 -109 -121 -145 l-14 -20 20 20 c32 31 228 258 245 282 9 12 38 46
65 76 81 89 157 178 153 181 -2 2 -40 -37 -84 -86z"/>
<path d="M2069 3773 c0 -15 -2 -48 -2 -73 -2 -36 2 -45 16 -48 16 -3 18 4 15
69 -2 47 -7 74 -15 77 -8 2 -13 -7 -14 -25z"/>
<path d="M1818 3730 c-2 -33 2 -55 9 -62 17 -14 25 9 21 63 -4 62 -25 61 -30
-1z"/>
<path d="M1986 3773 c-3 -4 -6 -33 -6 -65 0 -51 2 -58 20 -58 18 0 20 7 20 59
0 41 -4 60 -14 64 -8 3 -17 3 -20 0z"/>
<path d="M3390 3602 c0 -100 4 -119 24 -103 7 6 10 44 8 105 -3 75 -6 96 -18
96 -11 0 -14 -20 -14 -98z"/>
<path d="M2234 3646 c-3 -7 -4 -40 -2 -72 2 -47 7 -59 21 -62 15 -3 17 5 17
66 0 54 -4 71 -15 76 -9 3 -18 0 -21 -8z"/>
<path d="M2400 3555 c0 -48 4 -75 11 -75 7 0 9 -12 5 -35 -4 -22 -3 -35 4 -35
6 0 10 40 10 110 0 91 -3 110 -15 110 -12 0 -15 -15 -15 -75z"/>
<path d="M3563 3596 c0 -6 -2 -15 -3 -21 -1 -5 -2 -27 -1 -47 1 -27 6 -38 16
-38 12 0 15 13 15 58 0 42 -4 59 -13 59 -8 0 -14 -5 -14 -11z"/>
<path d="M1587 3543 c-4 -3 -7 -33 -7 -65 0 -51 2 -58 20 -58 18 0 20 7 20 65
0 48 -4 65 -13 65 -8 0 -17 -3 -20 -7z"/>
<path d="M3060 3410 c0 -27 0 -53 -1 -57 0 -5 7 -9 15 -11 13 -3 16 8 16 57 0
48 -3 61 -15 61 -11 0 -15 -12 -15 -50z"/>
<path d="M2480 3375 c0 -60 3 -75 15 -75 12 0 15 15 15 75 0 60 -3 75 -15 75
-12 0 -15 -15 -15 -75z"/>
<path d="M3698 3426 c-21 -28 -298 -349 -343 -397 l-33 -36 -119 -7 c-65 -4
-263 -16 -440 -27 l-322 -20 -63 -67 c-92 -97 -172 -184 -268 -292 -47 -52
-106 -117 -132 -145 -25 -27 -56 -63 -69 -80 l-22 -30 30 30 c16 17 61 64 99
105 128 140 251 275 282 310 17 19 57 63 89 96 l58 62 305 16 c361 20 564 34
582 42 7 2 29 26 48 52 18 26 47 61 62 77 15 17 40 44 55 62 16 17 57 63 92
102 35 39 73 83 84 99 12 15 30 34 41 43 11 9 15 18 10 21 -5 3 -16 -4 -26
-16z"/>
<path d="M1420 3375 c0 -42 3 -55 15 -55 12 0 15 13 15 55 0 42 -3 55 -15 55
-12 0 -15 -13 -15 -55z"/>
<path d="M2810 3310 c0 -80 3 -100 14 -100 11 0 15 21 15 100 1 83 -2 100 -14
100 -12 0 -15 -18 -15 -100z"/>
<path d="M1252 3313 c2 -46 7 -59 21 -61 15 -3 17 5 17 57 0 55 -2 61 -20 61
-19 0 -21 -5 -18 -57z"/>
<path d="M3222 3343 c4 -36 33 -39 33 -3 0 16 -6 26 -18 28 -15 3 -18 -2 -15
-25z"/>
<path d="M2561 3300 c0 -38 3 -50 14 -50 18 0 29 41 21 75 -11 45 -33 30 -35
-25z"/>
<path d="M1090 3115 c0 -16 6 -25 15 -25 9 0 15 9 15 25 0 16 -6 25 -15 25 -9
0 -15 -9 -15 -25z"/>
<path d="M930 3035 c9 -10 9 -15 1 -15 -6 0 -11 -11 -11 -25 0 -18 5 -25 20
-25 22 0 28 25 8 33 -10 4 -10 6 0 6 6 1 12 10 12 21 0 14 -7 20 -21 20 -18 0
-19 -2 -9 -15z"/>
<path d="M177 2993 c-4 -3 -7 -30 -7 -60 0 -46 3 -53 20 -53 18 0 20 7 20 60
0 43 -4 60 -13 60 -8 0 -17 -3 -20 -7z"/>
<path d="M346 2972 c-2 -4 -5 -40 -5 -80 0 -54 3 -72 14 -72 10 0 13 20 14 80
1 71 -7 97 -23 72z"/>
<path d="M594 2856 c-3 -9 -3 -24 1 -33 6 -17 7 -17 21 2 8 10 13 24 11 29 -6
17 -27 18 -33 2z"/>
<path d="M515 2806 c-3 -9 -7 -23 -10 -31 -3 -10 2 -15 15 -15 15 0 20 7 20
24 0 29 -18 44 -25 22z"/>
<path d="M1830 2277 c-25 -27 -44 -54 -42 -58 1 -5 -2 -9 -7 -9 -4 0 -57 -55
-117 -121 l-109 -121 -160 -77 c-88 -43 -222 -106 -297 -141 -76 -34 -138 -67
-138 -72 0 -5 17 -1 38 10 20 11 71 35 112 55 41 20 155 74 253 121 98 47 181
86 185 86 4 0 22 17 39 38 39 46 129 145 265 289 21 23 35 43 31 45 -4 3 -28
-18 -53 -45z"/>
<path d="M805 1610 c-77 -38 -134 -69 -128 -69 7 -1 70 27 140 62 149 72 137
66 132 71 -2 2 -67 -27 -144 -64z"/>
</g>
</svg>
